<svg width="64" height="24" viewBox="0 0 64 24" fill="none" xmlns="http://www.w3.org/2000/svg">
<path d="M15.9042 11.9829C15.9042 11.511 15.5171 11.1268 15.0417 11.1268C14.5663 11.1268 14.1793 11.511 14.1793 11.9829C14.1793 12.4547 14.5663 12.8389 15.0417 12.8389C15.5171 12.8389 15.9042 12.4547 15.9042 11.9829Z" fill="#24417A"/>
<path d="M13.5852 14.6155C13.748 14.7771 13.9645 14.8665 14.1957 14.8665C14.426 14.8665 14.6425 14.7771 14.8062 14.6155C14.969 14.4539 15.059 14.239 15.059 14.0096C15.059 13.7809 14.969 13.5661 14.8062 13.4036C14.4806 13.0805 13.9117 13.0805 13.5861 13.4036C13.4233 13.5652 13.3333 13.7801 13.3333 14.0096C13.3333 14.239 13.4224 14.4539 13.5852 14.6155Z" fill="#24417A"/>
<path d="M14.2 10.808C14.4304 10.808 14.6469 10.7186 14.8105 10.557C15.1474 10.2227 15.1474 9.67949 14.8105 9.34516C14.4849 9.02199 13.916 9.02199 13.5904 9.34516C13.2536 9.67864 13.2536 10.2227 13.5904 10.5562C13.7532 10.7186 13.9697 10.808 14.2 10.808Z" fill="#24417A"/>
<path d="M17.7356 11.126C17.2602 11.126 16.8731 11.5102 16.8731 11.982C16.8731 12.4539 17.2602 12.8381 17.7356 12.8381C18.211 12.8381 18.5981 12.4539 18.5981 11.982C18.5981 11.5102 18.211 11.126 17.7356 11.126Z" fill="#24417A"/>
<path d="M16.7112 16.5064C17.0472 16.172 17.0472 15.6288 16.7112 15.2954C16.3856 14.9722 15.8167 14.9722 15.4911 15.2954C15.3283 15.4569 15.2383 15.6718 15.2383 15.9013C15.2383 16.1299 15.3283 16.3448 15.4911 16.5072C15.6539 16.6688 15.8704 16.7582 16.1016 16.7582C16.3311 16.7573 16.5476 16.6679 16.7112 16.5064Z" fill="#24417A"/>
<path d="M16.1561 8.86646C16.3865 8.86646 16.603 8.77707 16.7666 8.61549C16.9294 8.45391 17.0195 8.23904 17.0195 8.00956C17.0195 7.78008 16.9294 7.56607 16.7666 7.40448C16.441 7.08132 15.8721 7.08132 15.5465 7.40448C15.2106 7.73796 15.2106 8.28115 15.5465 8.61549C15.7093 8.77707 15.9258 8.86646 16.1561 8.86646Z" fill="#24417A"/>
<path d="M17.0689 9.0658C16.855 9.15175 16.6887 9.31591 16.5995 9.52649C16.5103 9.73706 16.5095 9.96998 16.5961 10.1814C16.7294 10.5054 17.0429 10.7143 17.3953 10.7143C17.507 10.7143 17.6161 10.6928 17.7209 10.6507C17.9339 10.5639 18.101 10.4006 18.1902 10.19C18.2794 9.97857 18.2803 9.74651 18.1937 9.53422C18.0603 9.21106 17.7469 9.00134 17.3944 9.00134C17.2819 9.0022 17.1728 9.02369 17.0689 9.0658Z" fill="#24417A"/>
<path d="M17.6473 13.285C17.5434 13.2429 17.4334 13.2214 17.3217 13.2214C16.9701 13.2214 16.6558 13.4303 16.5224 13.7543C16.435 13.9657 16.4367 14.1987 16.5259 14.4101C16.6151 14.6207 16.7822 14.7848 16.9952 14.8708C17.0991 14.9129 17.2091 14.9344 17.3208 14.9344C17.6724 14.9344 17.9867 14.7255 18.1201 14.4015C18.3002 13.964 18.088 13.4638 17.6473 13.285Z" fill="#24417A"/>
<path d="M19.8432 17.096C20.1082 16.7032 20.0017 16.1704 19.6068 15.9082C19.2232 15.6529 18.6656 15.7638 18.4101 16.1428C18.1452 16.5356 18.2517 17.0685 18.6465 17.3307C18.7885 17.4261 18.9548 17.4759 19.1263 17.4759C19.4137 17.4759 19.6822 17.3332 19.8432 17.096Z" fill="#24417A"/>
<path d="M20.2961 9.51194C20.0701 9.55578 19.8753 9.68556 19.7471 9.8755C19.619 10.0654 19.5731 10.2941 19.6173 10.5184C19.6969 10.9181 20.0528 11.2086 20.4633 11.2086C20.5187 11.2086 20.575 11.2034 20.6312 11.1922C20.8573 11.1484 21.0521 11.0186 21.1811 10.8287C21.3093 10.6387 21.3552 10.4101 21.311 10.1858C21.2201 9.73197 20.7715 9.41654 20.2961 9.51194Z" fill="#24417A"/>
<path d="M20.6252 12.8355C20.1662 12.7426 19.7012 13.0486 19.6068 13.5024C19.5116 13.9648 19.8129 14.4186 20.2788 14.5132C20.336 14.5252 20.3948 14.5312 20.4529 14.5312C20.8607 14.5312 21.2157 14.2433 21.2971 13.8471C21.343 13.6228 21.2989 13.3941 21.1724 13.2033C21.0451 13.0117 20.8503 12.881 20.6252 12.8355Z" fill="#24417A"/>
<path d="M19.1791 8.14105C19.3514 8.14105 19.5177 8.09034 19.6606 7.99493C19.8519 7.86687 19.9818 7.67349 20.0251 7.4483C20.0693 7.22398 20.0225 6.99622 19.8935 6.80541C19.7324 6.56906 19.4649 6.4281 19.1774 6.4281C19.0051 6.4281 18.8388 6.47881 18.6959 6.57421C18.3011 6.83807 18.1963 7.37095 18.4621 7.76287C18.624 8.00009 18.8916 8.14105 19.1791 8.14105Z" fill="#24417A"/>
<path d="M23.313 11.126C22.8376 11.126 22.4506 11.5102 22.4506 11.982C22.4506 12.4539 22.8376 12.8381 23.313 12.8381C23.7884 12.8381 24.1755 12.4539 24.1755 11.982C24.1755 11.5102 23.7884 11.126 23.313 11.126Z" fill="#24417A"/>
<path d="M19.4345 19.2094C19.0977 19.5437 19.0977 20.0869 19.4345 20.4204C19.5973 20.582 19.8138 20.6714 20.045 20.6714C20.2754 20.6714 20.4918 20.582 20.6546 20.4204C20.9906 20.0869 20.9906 19.5429 20.6546 19.2085C20.3282 18.8862 19.7593 18.8862 19.4345 19.2094Z" fill="#24417A"/>
<path d="M20.0485 5.00306C20.2788 5.00306 20.4953 4.91368 20.6581 4.75209C20.8209 4.59051 20.9109 4.37564 20.9109 4.14616C20.9109 3.91668 20.8209 3.70267 20.6581 3.54023C20.3325 3.21706 19.7636 3.21706 19.438 3.54023C19.2752 3.70181 19.1852 3.91668 19.1852 4.14616C19.1852 4.37564 19.2752 4.58965 19.438 4.75123C19.6017 4.91368 19.8181 5.00306 20.0485 5.00306Z" fill="#24417A"/>
<path d="M22.4904 8.64898C22.6029 8.64898 22.712 8.62749 22.816 8.58537C23.0298 8.49943 23.1961 8.33526 23.2853 8.12469C23.3745 7.91412 23.3753 7.6812 23.2887 7.46977C23.1554 7.14574 22.8419 6.93689 22.4895 6.93689C22.3778 6.93689 22.2687 6.95838 22.1639 7.00049C21.9509 7.0873 21.7838 7.2506 21.6946 7.46117C21.6054 7.67261 21.6045 7.90466 21.6911 8.11696C21.8245 8.44012 22.1379 8.64898 22.4904 8.64898Z" fill="#24417A"/>
<path d="M22.8108 15.377C22.7068 15.3348 22.5969 15.3134 22.4852 15.3134C22.1327 15.3134 21.8193 15.5222 21.6859 15.8462C21.5985 16.0577 21.6002 16.2906 21.6894 16.5012C21.7786 16.7117 21.9457 16.8759 22.1587 16.9618C22.2626 17.004 22.3726 17.0254 22.4843 17.0254C22.8359 17.0254 23.1502 16.8166 23.2836 16.4926C23.4628 16.0568 23.2506 15.5557 22.8108 15.377Z" fill="#24417A"/>
<path d="M8.39578 11.9829C8.39578 12.4547 8.78285 12.8389 9.25824 12.8389C9.73363 12.8389 10.1207 12.4547 10.1207 11.9829C10.1207 11.511 9.73363 11.1268 9.25824 11.1268C8.78372 11.126 8.39578 11.5102 8.39578 11.9829Z" fill="#3F9043"/>
<path d="M10.1069 10.808C10.3372 10.808 10.5537 10.7186 10.7165 10.557C11.0533 10.2227 11.0533 9.67949 10.7165 9.34601C10.3909 9.02285 9.82196 9.02285 9.49638 9.34601C9.15953 9.67949 9.15953 10.2235 9.49638 10.557C9.65917 10.7186 9.87652 10.808 10.1069 10.808Z" fill="#3F9043"/>
<path d="M10.1112 14.8665C10.3415 14.8665 10.558 14.7771 10.7208 14.6155C10.8836 14.4539 10.9736 14.239 10.9736 14.0096C10.9736 13.7809 10.8836 13.5661 10.7208 13.4036C10.3952 13.0805 9.82627 13.0805 9.50068 13.4036C9.33789 13.5652 9.24783 13.7801 9.24783 14.0096C9.24783 14.2382 9.33789 14.4531 9.50068 14.6146C9.66434 14.7771 9.88082 14.8665 10.1112 14.8665Z" fill="#3F9043"/>
<path d="M5.62915 11.9829C5.62915 12.4547 6.01622 12.8389 6.49161 12.8389C6.967 12.8389 7.35407 12.4547 7.35407 11.9829C7.35407 11.511 6.967 11.1268 6.49161 11.1268C6.01708 11.126 5.62915 11.5102 5.62915 11.9829Z" fill="#3F9043"/>
<path d="M7.54023 7.40357C7.37744 7.56515 7.28738 7.78002 7.28738 8.0095C7.28738 8.23898 7.37744 8.45299 7.54023 8.61543C7.70303 8.77702 7.91951 8.8664 8.15071 8.8664C8.38104 8.8664 8.59752 8.77702 8.76118 8.61543C9.09716 8.28109 9.09716 7.7379 8.76118 7.40442C8.43473 7.0804 7.86582 7.08126 7.54023 7.40357Z" fill="#3F9043"/>
<path d="M7.59567 15.2954C7.25969 15.6288 7.25969 16.172 7.59567 16.5064C7.75847 16.6679 7.97495 16.7573 8.20615 16.7573C8.43648 16.7573 8.65296 16.6679 8.81662 16.5064C8.97942 16.3448 9.06947 16.1299 9.06947 15.9004C9.06947 15.6718 8.97942 15.4569 8.81662 15.2954C8.49017 14.9722 7.92213 14.9722 7.59567 15.2954Z" fill="#3F9043"/>
<path d="M7.31165 14.8708C7.52466 14.784 7.69179 14.6207 7.78098 14.4101C7.87017 14.1987 7.87103 13.9666 7.78444 13.7543C7.65109 13.4303 7.33762 13.2214 6.98519 13.2214C6.87349 13.2214 6.76352 13.2429 6.65961 13.285C6.21885 13.4638 6.0067 13.964 6.18681 14.4015C6.32017 14.7255 6.63363 14.9344 6.98606 14.9344C7.09776 14.9344 7.20774 14.9129 7.31165 14.8708Z" fill="#3F9043"/>
<path d="M6.58599 10.6515C6.68991 10.6937 6.79988 10.7151 6.91158 10.7151C7.26401 10.7151 7.57748 10.5063 7.71083 10.1823C7.79829 9.97083 7.79655 9.73791 7.70736 9.52734C7.61817 9.3159 7.45105 9.1526 7.23803 9.06665C7.13412 9.02454 7.02415 9.00305 6.91245 9.00305C6.56002 9.00305 6.24655 9.21191 6.1132 9.53593C6.02574 9.74736 6.02747 9.98028 6.11666 10.1917C6.20585 10.4014 6.37298 10.5647 6.58599 10.6515Z" fill="#3F9043"/>
<path d="M4.39781 6.82692C4.13284 7.2197 4.23935 7.75258 4.63421 8.01472C4.77709 8.10926 4.94248 8.15997 5.11393 8.15997C5.40228 8.15997 5.67072 8.01816 5.83091 7.78008C5.95907 7.59014 6.00496 7.36151 5.9608 7.13719C5.91577 6.91286 5.78589 6.71948 5.59452 6.59142C5.45164 6.49688 5.28625 6.44617 5.1148 6.44617C4.82731 6.44703 4.55887 6.58884 4.39781 6.82692Z" fill="#3F9043"/>
<path d="M4.08694 14.4384C4.31295 14.3946 4.50865 14.2648 4.6368 14.0749C4.76496 13.8849 4.81085 13.6563 4.76669 13.432C4.67664 12.9782 4.22895 12.661 3.7527 12.7582C3.28683 12.8501 2.98203 13.3013 3.07381 13.7646C3.15348 14.1643 3.50937 14.4548 3.91895 14.4548C3.97437 14.4548 4.03066 14.4496 4.08694 14.4384Z" fill="#3F9043"/>
<path d="M3.75878 11.1457C3.81593 11.1577 3.87481 11.1638 3.93283 11.1638C4.34068 11.1638 4.69571 10.8758 4.7771 10.4796C4.87236 10.0172 4.57188 9.56426 4.10601 9.46886C3.64534 9.37604 3.18121 9.68287 3.08769 10.135C3.04093 10.3593 3.08509 10.5879 3.21238 10.7787C3.33881 10.9695 3.53277 11.1002 3.75878 11.1457Z" fill="#3F9043"/>
<path d="M4.71127 15.9271C4.31728 16.1909 4.2125 16.7247 4.47834 17.1158C4.63853 17.3521 4.90697 17.4939 5.19446 17.4939C5.36591 17.4939 5.53303 17.4432 5.67591 17.3478C6.07077 17.0839 6.17468 16.5502 5.90884 16.1591C5.65253 15.781 5.09401 15.6718 4.71127 15.9271Z" fill="#3F9043"/>
<path d="M1.85114 11.9829C1.85114 11.511 1.46407 11.1268 0.988679 11.1268C0.513288 11.1268 0.126221 11.511 0.126221 11.9829C0.126221 12.4547 0.513288 12.8389 0.988679 12.8389C1.4632 12.8389 1.85114 12.4547 1.85114 11.9829Z" fill="#3F9043"/>
<path d="M4.25839 5.00306C4.48873 5.00306 4.70521 4.91368 4.86887 4.75209C5.03166 4.59051 5.12172 4.37564 5.12172 4.14616C5.12172 3.91668 5.03166 3.70267 4.86887 3.54023C4.54328 3.21706 3.97437 3.21706 3.64878 3.54023C3.48599 3.70181 3.39594 3.91668 3.39594 4.14616C3.39594 4.37564 3.48599 4.58965 3.64792 4.75123C3.81071 4.91368 4.02719 5.00306 4.25839 5.00306Z" fill="#3F9043"/>
<path d="M3.65226 19.2094C3.31542 19.5437 3.31542 20.0869 3.65226 20.4204C3.81505 20.5819 4.03153 20.6713 4.26187 20.6713C4.49221 20.6713 4.70869 20.5819 4.87234 20.4204C5.20832 20.0869 5.20832 19.5428 4.87234 19.2085C4.54676 18.8862 3.97871 18.8853 3.65226 19.2094Z" fill="#3F9043"/>
<path d="M1.82169 15.3134C1.70998 15.3134 1.60001 15.3348 1.4961 15.377C1.05534 15.5557 0.84406 16.0568 1.02331 16.4934C1.15666 16.8166 1.47012 17.0263 1.82255 17.0263C1.93426 17.0263 2.04423 17.0048 2.14814 16.9627C2.36116 16.8759 2.52828 16.7126 2.61747 16.502C2.70666 16.2914 2.70752 16.0585 2.62093 15.8471C2.48845 15.5231 2.17412 15.3134 1.82169 15.3134Z" fill="#3F9043"/>
<path d="M1.4909 8.58538C1.59481 8.62749 1.70478 8.64898 1.81649 8.64898C2.16892 8.64898 2.48238 8.44013 2.61573 8.1161C2.70319 7.90467 2.70146 7.67175 2.61227 7.46032C2.52308 7.24975 2.35596 7.08558 2.14294 6.99964C2.03903 6.95752 1.92906 6.93604 1.81735 6.93604C1.46492 6.93604 1.15146 7.14489 1.01811 7.46891C0.93065 7.68035 0.932382 7.91326 1.02157 8.12384C1.11076 8.33613 1.27702 8.49943 1.4909 8.58538Z" fill="#3F9043"/>
<path d="M12.153 15.8492C12.7053 15.8492 13.153 15.4015 13.153 14.8492C13.153 14.297 12.7053 13.8492 12.153 13.8492C11.6007 13.8492 11.153 14.297 11.153 14.8492C11.153 15.4015 11.6007 15.8492 12.153 15.8492Z" fill="#E94425"/>
<path d="M12.153 16.667C11.6776 16.667 11.2906 17.0512 11.2906 17.523C11.2906 17.9949 11.6776 18.3791 12.153 18.3791C12.6284 18.3791 13.0155 17.9949 13.0155 17.523C13.0163 17.0512 12.6293 16.667 12.153 16.667Z" fill="#E94425"/>
<path d="M14.2936 16.3284C14.1819 16.3284 14.0719 16.3499 13.968 16.392C13.7541 16.4779 13.5878 16.6421 13.4987 16.8527C13.4095 17.0632 13.4086 17.2961 13.4952 17.5076C13.6285 17.8316 13.942 18.0405 14.2944 18.0405C14.4061 18.0405 14.5161 18.019 14.62 17.9769C14.833 17.89 15.0002 17.7267 15.0894 17.5162C15.1785 17.3047 15.1794 17.0727 15.0928 16.8604C14.9595 16.5372 14.646 16.3284 14.2936 16.3284Z" fill="#E94425"/>
<path d="M10.0428 17.9683C10.3952 17.9683 10.7087 17.7595 10.842 17.4354C10.9295 17.224 10.9277 16.9911 10.8386 16.7797C10.7494 16.5691 10.5822 16.4049 10.3692 16.319C10.2653 16.2769 10.1553 16.2554 10.0436 16.2554C9.69121 16.2554 9.37775 16.4642 9.2444 16.7882C9.15694 16.9997 9.15867 17.2326 9.24786 17.4432C9.33705 17.6537 9.50331 17.8179 9.71719 17.9039C9.8211 17.9468 9.93021 17.9683 10.0428 17.9683Z" fill="#E94425"/>
<path d="M8.19922 19.3804C8.32824 19.1905 8.37414 18.9619 8.32911 18.7375C8.28408 18.5132 8.15419 18.3198 7.96283 18.1918C7.57922 17.9365 7.02157 18.0474 6.76612 18.4264C6.63796 18.6164 6.59207 18.845 6.63623 19.0693C6.68126 19.2936 6.81115 19.487 7.00252 19.6142C7.14453 19.7096 7.31079 19.7595 7.48224 19.7595C7.77059 19.7603 8.03903 19.6177 8.19922 19.3804Z" fill="#E94425"/>
<path d="M13.6138 19.3151C13.3878 19.3589 13.193 19.4887 13.0648 19.6786C12.9367 19.8686 12.8908 20.0972 12.9349 20.3215C13.0146 20.722 13.3705 21.0117 13.7809 21.0117C13.8364 21.0117 13.8926 21.0065 13.9489 20.9954C14.1749 20.9515 14.3706 20.8217 14.4988 20.6318C14.627 20.4419 14.6728 20.2132 14.6287 19.9889C14.5369 19.5342 14.0901 19.2188 13.6138 19.3151Z" fill="#E94425"/>
<path d="M16.3605 18.1815C15.9665 18.4453 15.8618 18.9791 16.1276 19.3701C16.2878 19.6065 16.5554 19.7483 16.8437 19.7483C17.016 19.7483 17.1823 19.6976 17.3252 19.6022C17.5165 19.4741 17.6456 19.2808 17.6897 19.0556C17.7339 18.8313 17.6871 18.6026 17.5581 18.4135C17.3018 18.0345 16.7441 17.9245 16.3605 18.1815Z" fill="#E94425"/>
<path d="M11.1693 19.7483C11.0421 19.5575 10.8481 19.4269 10.623 19.3813C10.1631 19.2885 9.69815 19.5953 9.60463 20.0474C9.55787 20.2718 9.60203 20.5004 9.72932 20.6912C9.85574 20.882 10.0506 21.0126 10.2757 21.0582C10.3337 21.0702 10.3918 21.0762 10.4506 21.0762C10.8576 21.0762 11.2135 20.7883 11.2949 20.3921C11.3408 20.1678 11.2966 19.9391 11.1693 19.7483Z" fill="#E94425"/>
<path d="M12.153 22.203C11.6776 22.203 11.2906 22.5872 11.2906 23.059C11.2906 23.5309 11.6776 23.9151 12.153 23.9151C12.6284 23.9151 13.0155 23.5309 13.0155 23.059C13.0163 22.5872 12.6293 22.203 12.153 22.203Z" fill="#E94425"/>
<path d="M16.3744 21.3865C16.2627 21.3865 16.1536 21.408 16.0488 21.4501C15.8358 21.5369 15.6687 21.7002 15.5795 21.9108C15.4903 22.1222 15.4894 22.3542 15.576 22.5665C15.7094 22.8897 16.0228 23.0994 16.3744 23.0994C16.4861 23.0994 16.5961 23.0779 16.7 23.0358C16.9139 22.9499 17.0801 22.7857 17.1693 22.5751C17.2585 22.3646 17.2594 22.1316 17.1728 21.9202C17.0403 21.5953 16.726 21.3865 16.3744 21.3865Z" fill="#E94425"/>
<path d="M8.26071 21.4441C8.1568 21.402 8.04683 21.3805 7.93512 21.3805C7.58356 21.3805 7.26923 21.5893 7.13588 21.9134C7.04842 22.1248 7.05015 22.3577 7.13934 22.5692C7.22853 22.7797 7.39565 22.9439 7.60867 23.0298C7.71258 23.072 7.82255 23.0934 7.93426 23.0934C8.28582 23.0934 8.60015 22.8846 8.7335 22.5606C8.91275 22.1239 8.7006 21.6229 8.26071 21.4441Z" fill="#E94425"/>
<path d="M12.153 10.1096C12.7053 10.1096 13.153 9.6619 13.153 9.10962C13.153 8.55733 12.7053 8.10962 12.153 8.10962C11.6007 8.10962 11.153 8.55733 11.153 9.10962C11.153 9.6619 11.6007 10.1096 12.153 10.1096Z" fill="#F9D508"/>
<path d="M12.153 5.50757C11.6776 5.50757 11.2906 5.89176 11.2906 6.36361C11.2906 6.83547 11.6776 7.21965 12.153 7.21965C12.6284 7.21965 13.0155 6.83547 13.0155 6.36361C13.0163 5.89176 12.6293 5.50757 12.153 5.50757Z" fill="#F9D508"/>
<path d="M10.0428 7.70952C10.1545 7.70952 10.2644 7.68803 10.3684 7.64592C10.5822 7.55997 10.7485 7.39581 10.8377 7.18524C10.9269 6.97467 10.9277 6.74175 10.8411 6.53031C10.7078 6.20629 10.3943 5.99744 10.0419 5.99744C9.9302 5.99744 9.82022 6.01892 9.71631 6.06104C9.27556 6.23981 9.06427 6.74089 9.24352 7.1775C9.37774 7.50067 9.6912 7.70952 10.0428 7.70952Z" fill="#F9D508"/>
<path d="M14.2936 5.92444C13.942 5.92444 13.6277 6.13329 13.4943 6.45732C13.4069 6.66875 13.4086 6.90167 13.4978 7.11224C13.587 7.32281 13.7541 7.48697 13.9671 7.57292C14.071 7.61504 14.181 7.63652 14.2927 7.63652C14.6443 7.63652 14.9586 7.42767 15.092 7.10365C15.1794 6.89221 15.1777 6.65929 15.0885 6.44786C14.9993 6.23729 14.8322 6.07313 14.6192 5.98718C14.5153 5.94593 14.4062 5.92444 14.2936 5.92444Z" fill="#F9D508"/>
<path d="M16.151 4.5209C16.0229 4.71085 15.977 4.93861 16.0211 5.16379C16.0661 5.38812 16.196 5.5815 16.3874 5.70956C16.5303 5.8041 16.6957 5.85481 16.8671 5.85481C17.1555 5.85481 17.4239 5.713 17.5841 5.47492C17.7123 5.28498 17.7582 5.05636 17.714 4.83203C17.669 4.60771 17.5391 4.41432 17.3477 4.28626C16.965 4.031 16.4065 4.14187 16.151 4.5209Z" fill="#F9D508"/>
<path d="M10.5104 4.59053C10.5658 4.59053 10.6221 4.58537 10.6784 4.5742C10.9044 4.53036 11.0992 4.40058 11.2274 4.21064C11.3555 4.02069 11.4014 3.79207 11.3572 3.56775C11.2663 3.11394 10.8186 2.80109 10.3441 2.89391C10.1181 2.93775 9.92241 3.06753 9.79426 3.25747C9.6661 3.44742 9.62021 3.67604 9.66437 3.90037C9.74403 4.30002 10.0999 4.59053 10.5104 4.59053Z" fill="#F9D508"/>
<path d="M7.42076 5.86589C7.59308 5.86589 7.75934 5.81518 7.90222 5.71978C8.29708 5.45592 8.40185 4.92304 8.13602 4.53112C7.97495 4.29476 7.70738 4.15381 7.4199 4.15381C7.24758 4.15381 7.08132 4.20452 6.93845 4.29992C6.74708 4.42798 6.61719 4.62137 6.57389 4.84655C6.52973 5.07087 6.57649 5.29864 6.70551 5.48944C6.86571 5.72494 7.13328 5.86589 7.42076 5.86589Z" fill="#F9D508"/>
<path d="M13.1211 4.29397C13.2476 4.48477 13.4424 4.61541 13.6675 4.66183C13.7247 4.67386 13.7836 4.67988 13.8416 4.67988C14.2494 4.67988 14.6045 4.39195 14.6859 3.99573C14.7811 3.53333 14.4798 3.07952 14.0148 2.98498C13.5541 2.89301 13.09 3.19899 12.9964 3.65108C12.9497 3.87454 12.9938 4.10316 13.1211 4.29397Z" fill="#F9D508"/>
<path d="M12.153 1.75676C12.6284 1.75676 13.0155 1.37258 13.0155 0.90072C13.0155 0.428866 12.6284 0.0446777 12.153 0.0446777C11.6776 0.0446777 11.2906 0.428866 11.2906 0.90072C11.2906 1.37258 11.6776 1.75676 12.153 1.75676Z" fill="#F9D508"/>
<path d="M7.93424 2.58525C8.04595 2.58525 8.15592 2.56377 8.25983 2.52165C8.47285 2.43485 8.63997 2.27154 8.72916 2.06097C8.81835 1.8504 8.81922 1.61748 8.73262 1.40605C8.59927 1.08202 8.28581 0.873169 7.93338 0.873169C7.82167 0.873169 7.7117 0.894656 7.60779 0.93677C7.39477 1.02358 7.22765 1.18688 7.13846 1.39745C7.04927 1.60888 7.04841 1.84094 7.135 2.05324C7.26922 2.37554 7.58268 2.58525 7.93424 2.58525Z" fill="#F9D508"/>
<path d="M16.0488 2.51568C16.1527 2.55779 16.2627 2.57928 16.3744 2.57928C16.726 2.57928 17.0403 2.37042 17.1737 2.0464C17.2611 1.83497 17.2594 1.60205 17.1702 1.39062C17.081 1.18004 16.9139 1.01588 16.7009 0.929935C16.597 0.88782 16.487 0.866333 16.3753 0.866333C16.0228 0.866333 15.7094 1.07519 15.576 1.39921C15.4886 1.61064 15.4903 1.84356 15.5795 2.05414C15.6687 2.26557 15.8349 2.42973 16.0488 2.51568Z" fill="#F9D508"/>
<path d="M12 11.0322C11.5199 11.0322 11.129 11.4231 11.129 11.9032C11.129 12.3833 11.5199 12.7742 12 12.7742C12.4801 12.7742 12.871 12.3833 12.871 11.9032C12.871 11.4231 12.4801 11.0322 12 11.0322Z" fill="white"/>
<path d="M59.0164 5.07751L59.0207 6.75997C59.0207 6.75997 58.3513 5.78287 58.2511 5.61932C58.0792 5.39455 57.8675 5.08087 57.5074 5.08171L57.2733 5.08255L56.7602 5.08422L56.7662 7.47119L57.5134 7.46951L57.5091 5.7879C57.5091 5.7879 58.1776 6.765 58.2787 6.92855C58.4506 7.15332 58.6432 7.467 59.0224 7.46616L59.2565 7.46532L59.7635 7.46448L59.7575 5.07751H59.0164Z" fill="white"/>
<path d="M55.1268 5.45242C54.9661 5.82229 54.6802 6.60816 54.6802 6.60816L54.3261 5.61513C54.3261 5.61513 54.1412 5.0901 53.5565 5.09178L52.811 5.09345L52.8171 7.48042L53.5625 7.47874L53.5582 5.82229C53.5582 5.82229 53.6472 5.83907 53.8216 6.3121C53.9953 6.78429 54.2518 7.4821 54.2518 7.4821L54.7545 7.48042C54.7545 7.48042 55.1156 7.45694 55.3237 6.90003L55.5924 6.18294C55.5924 6.18294 55.7263 5.7921 55.8506 5.74513L55.855 7.47287L56.5935 7.4712L56.5874 5.08423L55.8489 5.08591C55.8489 5.08507 55.2875 5.08255 55.1268 5.45242Z" fill="white"/>
<path d="M62.4861 6.8422C62.4844 6.84052 62.4827 6.83884 62.4809 6.83633L61.3321 6.83884C61.0073 6.83968 60.743 6.58555 60.7422 6.27104C60.7413 5.95652 61.0039 5.70155 61.3287 5.70071L62.4326 5.6982C62.525 5.59839 62.6243 5.51871 62.6934 5.45162L63.0925 5.06665L61.1715 5.07168C60.4865 5.07336 59.9328 5.61181 59.9345 6.27439C59.9363 6.93697 60.4925 7.47207 61.1775 7.4704L63.1227 7.46536L62.4861 6.8422Z" fill="white"/>
<path d="M27.0372 8.35547C27.4101 8.35547 27.5879 8.53875 27.5793 8.89688V9.22121H26.4529V8.35547H27.0372ZM27.0372 9.61228C27.4015 9.61228 27.5793 9.78711 27.5793 10.1452V14.0162H26.4529V9.61228H27.0372Z" fill="#24417A"/>
<path d="M31.4579 14.0162C31.085 13.9917 30.8994 13.816 30.8994 13.4671V11.2027C30.8745 10.7449 30.6202 10.5202 30.1201 10.5202C29.62 10.5202 29.3666 10.7449 29.358 11.2027V14.017H28.2143V11.4274C28.2143 10.1706 28.8579 9.54553 30.1373 9.54553C31.4167 9.54553 32.0431 10.1697 32.0345 11.4274V14.017H31.4579V14.0162Z" fill="#24417A"/>
<path d="M35.785 14.0162C35.4121 13.9917 35.2265 13.816 35.2265 13.4671V11.2027C35.2016 10.7449 34.9473 10.5202 34.4472 10.5202C33.9471 10.5202 33.6936 10.7449 33.6851 11.2027V14.017H32.5414V11.4274C32.5414 10.1706 33.185 9.54553 34.4644 9.54553C35.7429 9.54553 36.3702 10.1697 36.3616 11.4274V14.017H35.785V14.0162Z" fill="#24417A"/>
<path d="M40.9087 11.8353C40.9087 13.3506 40.223 14.1167 38.8671 14.1167C37.5112 14.1167 36.8342 13.3506 36.8342 11.8353C36.8342 10.3032 37.5112 9.54553 38.8671 9.54553C40.223 9.54553 40.9087 10.3032 40.9087 11.8353ZM37.9787 11.8353C37.9873 12.6926 38.2837 13.1259 38.8594 13.1259C39.4351 13.1259 39.7229 12.6766 39.7315 11.8024C39.7315 10.9451 39.4437 10.5202 38.868 10.5202C38.2751 10.5194 37.9787 10.9611 37.9787 11.8353Z" fill="#24417A"/>
<path d="M45.5494 9.6123L43.9658 14.0162H42.7715L41.1965 9.6123H42.4415L43.348 12.7011L44.1274 10.0034C44.2124 9.74576 44.398 9.6123 44.6781 9.6123H45.5494Z" fill="#24417A"/>
<path d="M46.9637 10.761H45.8372C45.973 9.94504 46.5573 9.54553 47.5901 9.54553C48.8265 9.54553 49.4538 9.94504 49.4787 10.761V12.2593C49.4787 13.4747 48.7337 14.0162 47.5222 14.0989C46.4464 14.1817 45.7015 13.691 45.7015 12.7171C45.7264 11.6596 46.5057 11.3767 47.6408 11.2686C48.1237 11.2103 48.3694 11.0692 48.3694 10.8277C48.3436 10.5777 48.1065 10.4527 47.6408 10.4527C47.2429 10.4527 47.023 10.5532 46.9637 10.761ZM48.3866 12.2095V11.8015C48.1237 11.9096 47.8195 12.0017 47.4887 12.0676C47.0393 12.1512 46.8108 12.359 46.8108 12.6833C46.8365 13.033 47.0221 13.1994 47.3787 13.1994C48.0051 13.2002 48.3866 12.8345 48.3866 12.2095Z" fill="#24417A"/>
<path d="M51.4352 10.4028H51.3166V12.8421C51.3166 13.0254 51.4266 13.1251 51.6465 13.1251H51.9937V13.9663C51.6293 14.0001 51.2315 14.0001 50.8079 13.9579C50.3843 13.9165 50.1815 13.658 50.1893 13.1673V8.35547H50.7735C51.07 8.35547 51.3157 8.62153 51.3157 8.91292V9.61228H51.9937V9.85384C51.9937 10.1697 51.7479 10.4028 51.4352 10.4028Z" fill="#24417A"/>
<path d="M53.2215 8.35547C53.5944 8.35547 53.7723 8.53875 53.7637 8.89688V9.22121H52.6372V8.35547H53.2215ZM53.2215 9.61228C53.5858 9.61228 53.7637 9.78711 53.7637 10.1452V14.0162H52.6372V9.61228H53.2215Z" fill="#24417A"/>
<path d="M58.4388 11.8353C58.4388 13.3506 57.7531 14.1167 56.3973 14.1167C55.0414 14.1167 54.3643 13.3506 54.3643 11.8353C54.3643 10.3032 55.0414 9.54553 56.3973 9.54553C57.7531 9.54553 58.4388 10.3032 58.4388 11.8353ZM55.508 11.8353C55.5166 12.6926 55.813 13.1259 56.3887 13.1259C56.9644 13.1259 57.2522 12.6766 57.2608 11.8024C57.2608 10.9451 56.973 10.5202 56.3973 10.5202C55.8044 10.5194 55.508 10.9611 55.508 11.8353Z" fill="#24417A"/>
<path d="M62.2237 14.0162C61.8508 13.9917 61.6652 13.816 61.6652 13.4671V11.2027C61.6403 10.7449 61.386 10.5202 60.8859 10.5202C60.3858 10.5202 60.1324 10.7449 60.1238 11.2027V14.017H58.9801V11.4274C58.9801 10.1706 59.6237 9.54553 60.9031 9.54553C62.1816 9.54553 62.8089 10.1697 62.8003 11.4274V14.017H62.2237V14.0162Z" fill="#24417A"/>
<path d="M27.8653 18.8919C26.9273 18.8919 26.4462 18.3666 26.4228 17.327C26.4228 16.2933 26.8979 15.7731 27.8531 15.7562C28.6038 15.7562 29.0494 16.0822 29.1846 16.7392H28.3342C28.2406 16.5332 28.0759 16.4251 27.8297 16.4251C27.4188 16.4251 27.2143 16.7283 27.2143 17.3279C27.2143 17.9275 27.431 18.2307 27.8653 18.2248C28.0473 18.2248 28.2051 18.1504 28.3342 18.0077C28.4105 17.9334 28.4981 17.8988 28.5978 17.8988H29.1838C29.0433 18.5153 28.5865 18.9097 27.8653 18.8919Z" fill="#24417A"/>
<path d="M30.9782 18.8919C30.0402 18.8632 29.5713 18.332 29.5713 17.3042C29.5713 16.2756 30.0463 15.7621 30.9903 15.7562C31.9759 15.7562 32.4388 16.3449 32.3799 17.5272H30.374C30.4034 17.99 30.6089 18.2239 30.9894 18.2239C31.1715 18.2239 31.3414 18.1496 31.494 18.0069C31.5642 17.9326 31.6517 17.8979 31.7575 17.8979H32.3322C32.1623 18.5381 31.7401 18.8919 30.9782 18.8919ZM30.3861 16.9842H31.5529C31.5061 16.5839 31.3128 16.3786 30.9782 16.3786C30.6436 16.3786 30.4442 16.5847 30.3861 16.9842Z" fill="#24417A"/>
<path d="M34.9883 18.8235C34.73 18.8066 34.6008 18.6867 34.6008 18.4469V16.8929C34.5835 16.5788 34.4075 16.4242 34.0616 16.4242C33.7157 16.4242 33.5398 16.5788 33.5337 16.8929V18.8235H32.7422V17.0466C32.7422 16.1844 33.1878 15.7554 34.0729 15.7554C34.9579 15.7554 35.3922 16.1835 35.3862 17.0466V18.8235H34.9883Z" fill="#24417A"/>
<path d="M36.6006 16.3449H36.5183V18.0187C36.5183 18.1445 36.5946 18.2129 36.7471 18.2129H36.9872V18.7897C36.735 18.8125 36.4593 18.8125 36.1663 18.7838C35.8733 18.7551 35.732 18.5778 35.7381 18.2408V14.9387H36.1429C36.3484 14.9387 36.5183 15.1211 36.5183 15.3213V15.801H36.9872V15.9665C36.9872 16.1844 36.8173 16.3449 36.6006 16.3449Z" fill="#24417A"/>
<path d="M38.6993 18.8919C37.7614 18.8632 37.2924 18.332 37.2924 17.3042C37.2924 16.2756 37.7674 15.7621 38.7114 15.7562C39.6971 15.7562 40.16 16.3449 40.101 17.5272H38.096C38.1254 17.99 38.3309 18.2239 38.7114 18.2239C38.8935 18.2239 39.0634 18.1496 39.216 18.0069C39.2862 17.9326 39.3737 17.8979 39.4795 17.8979H40.0542C39.8843 18.5381 39.4621 18.8919 38.6993 18.8919ZM38.1072 16.9842H39.274C39.2272 16.5839 39.0339 16.3786 38.6993 16.3786C38.3647 16.3786 38.1662 16.5847 38.1072 16.9842Z" fill="#24417A"/>
<path d="M40.4642 17.2646C40.4876 16.2875 41.0208 15.8019 42.0593 15.8019H42.1711V16.5907H41.9076C41.4733 16.5907 41.2565 16.8136 41.2565 17.2536V18.8244H40.4651V17.2646H40.4642Z" fill="#24417A"/>
</svg>
