<svg width="14" height="18" viewBox="0 0 14 18" fill="none" xmlns="http://www.w3.org/2000/svg">
<path d="M12.8333 15.6667H1.16667C0.945656 15.6667 0.733695 15.7545 0.577414 15.9107C0.421134 16.067 0.333336 16.279 0.333336 16.5C0.333336 16.721 0.421134 16.933 0.577414 17.0893C0.733695 17.2455 0.945656 17.3333 1.16667 17.3333H12.8333C13.0544 17.3333 13.2663 17.2455 13.4226 17.0893C13.5789 16.933 13.6667 16.721 13.6667 16.5C13.6667 16.279 13.5789 16.067 13.4226 15.9107C13.2663 15.7545 13.0544 15.6667 12.8333 15.6667ZM1.16667 14H1.24167L4.71667 13.6833C5.09733 13.6454 5.45337 13.4777 5.725 13.2083L13.225 5.70833C13.5161 5.4008 13.6734 4.99042 13.6625 4.56711C13.6516 4.1438 13.4733 3.74209 13.1667 3.45L10.8833 1.16667C10.5853 0.886745 10.1948 0.726131 9.78611 0.715375C9.3774 0.70462 8.97899 0.844473 8.66667 1.10833L1.16667 8.60833C0.897308 8.87997 0.72959 9.236 0.69167 9.61666L0.333336 13.0917C0.322111 13.2137 0.337948 13.3368 0.379721 13.452C0.421493 13.5672 0.488172 13.6718 0.575003 13.7583C0.65287 13.8356 0.745217 13.8967 0.846748 13.9381C0.948279 13.9796 1.057 14.0006 1.16667 14ZM9.725 2.33333L12 4.60833L10.3333 6.23333L8.1 4L9.725 2.33333ZM2.30834 9.75833L7 5.1L9.25 7.35L4.58334 12.0167L2.08334 12.25L2.30834 9.75833Z" fill="#404040"/>
</svg>
