<svg width="22" height="22" viewBox="0 0 22 22" fill="none" xmlns="http://www.w3.org/2000/svg">
<path d="M21.5 20.4425L1.5575 0.499993L0.5 1.55749L5.3 6.36499L4.25 10.8275C4.22353 10.9393 4.22311 11.0557 4.24875 11.1677C4.27439 11.2796 4.32541 11.3842 4.39789 11.4734C4.47036 11.5625 4.56234 11.6338 4.66674 11.6818C4.77114 11.7297 4.88516 11.7531 5 11.75H8.6225L7.25 20.6375C7.22522 20.8022 7.25601 20.9705 7.33749 21.1159C7.41897 21.2612 7.54652 21.3752 7.7 21.44C7.79533 21.4787 7.89712 21.4991 8 21.5C8.11454 21.4997 8.22749 21.4732 8.3302 21.4225C8.4329 21.3718 8.52263 21.2983 8.5925 21.2075L13.6025 14.66L20.4425 21.5L21.5 20.4425ZM15.8975 11.6525L18.3425 8.45749C18.4213 8.35092 18.4704 8.22537 18.4849 8.09362C18.4994 7.96188 18.4787 7.82865 18.425 7.70749C18.3686 7.57425 18.2749 7.46017 18.1551 7.37899C18.0353 7.29782 17.8947 7.25302 17.75 7.24999H14.1875L15.5 1.41499C15.5248 1.30431 15.5242 1.18943 15.4983 1.07901C15.4723 0.968583 15.4216 0.865492 15.35 0.777493C15.2778 0.688474 15.1862 0.617176 15.0822 0.569072C14.9782 0.520967 14.8646 0.497336 14.75 0.499993H7.25C7.07766 0.495386 6.90899 0.550295 6.77239 0.655479C6.63578 0.760662 6.53959 0.909696 6.5 1.07749L6.275 2.05249L15.8975 11.6525Z" fill="black"/>
</svg>
